<?xml version="1.0" encoding="UTF-8"?><svg id="Layer_2" xmlns="http://www.w3.org/2000/svg" viewBox="0 0 50.92 44.9"><defs><style>.cls-1{fill:#ffb300;}.cls-2{fill:#c1ecde;}.cls-3{fill:#19c8b3;}.cls-4{fill:none;stroke:#063649;stroke-linecap:round;stroke-linejoin:round;stroke-width:2px;}</style></defs><g id="fill"><circle class="cls-2" cx="10.6" cy="12.97" r="10.6"/><circle class="cls-1" cx="42.09" cy="8.83" r="8.83"/><circle class="cls-3" cx="35.81" cy="25.16" r="8.13"/></g><g id="New_Trace"><path class="cls-4" d="M24.53,43.64c.91-2.69,1.45-5.23,2.12-9.09,.88-5.06,1.09-9.41,1.02-12.93"/><path class="cls-4" d="M16.95,41.08c.77-2.27,1.23-4.52,1.82-7.89,.67-3.88,.98-7.72,.91-11.4"/><path class="cls-4" d="M47.67,21.23c.08,3.87-.12,7.81-.59,11.78"/><path class="cls-4" d="M45.43,12.5c.65,1.19,1,2.11,1.4,3.43"/><path class="cls-4" d="M13.26,7.76c3.7-3.85,8.69-6.03,14.03-6.13h.22c4.14,0,8.01,1.26,11.22,3.41"/><path class="cls-4" d="M7.06,30.47c.47-2.9,.68-5.74,.62-8.45"/><path class="cls-4" d="M41.39,13.44c1.4,2.31,2.23,5,2.28,7.87,.1,5.21-.32,10.59-1.25,15.98"/><path class="cls-4" d="M30.77,5.94c2.37,.48,4.57,1.49,6.44,2.89"/><path class="cls-4" d="M15.4,11.36c.24-.28,.48-.55,.74-.82,2.96-3.08,6.95-4.83,11.22-4.91h.21"/><path class="cls-4" d="M9.38,38.51c.34-1,.61-2.05,.87-3.3,.21-.98,.41-2.09,.64-3.39,.59-3.38,.85-6.71,.79-9.88-.03-1.31,.1-2.6,.38-3.84"/><path class="cls-4" d="M39.46,28.74c-.2,2.6-.53,5.23-.98,7.87-.26,1.47-.5,2.81-.76,4.08"/><path class="cls-4" d="M13.16,39.79c.15-.44,.29-.89,.42-1.35,.46-1.65,.82-3.47,1.25-5.95,.63-3.63,.92-7.21,.85-10.64-.06-3.2,1.12-6.24,3.35-8.55,2.22-2.31,5.21-3.62,8.42-3.68h.21c5.62,0,10.37,3.91,11.67,9.13"/><path class="cls-4" d="M35.33,30.04c-.19,1.95-.46,3.91-.8,5.88-.43,2.45-.82,4.51-1.31,6.47"/><path class="cls-4" d="M20.77,17.57c.31-.53,.69-1.03,1.13-1.49,1.48-1.54,3.47-2.41,5.61-2.45h.19c4.01,0,7.34,2.73,7.85,6.65"/><path class="cls-4" d="M16.95,41.08c.77-2.27,1.23-4.52,1.82-7.89,.67-3.88,.98-7.72,.91-11.4"/><path class="cls-4" d="M31.49,28.09c-.18,2.36-.48,4.75-.89,7.15-.59,3.42-1.12,6.03-1.94,8.66"/><path class="cls-4" d="M23.29,29.81c.31-2.75,.44-5.46,.38-8.11-.04-2.21,1.71-4.04,3.92-4.08,2.2-.06,4.03,1.71,4.08,3.92,0,.29,0,.58,.01,.87"/><path class="cls-4" d="M20.74,42.36c.85-2.52,1.35-4.93,1.97-8.49,.09-.53,.18-1.06,.26-1.6"/><path class="cls-4" d="M24.53,43.64c.91-2.69,1.45-5.23,2.12-9.09,.88-5.06,1.09-9.41,1.02-12.93"/><circle class="cls-4" cx="10.6" cy="12.97" r="4.88"/><path class="cls-4" d="M46.98,8.55c0,2.7-2.19,4.88-4.88,4.88s-4.88-2.19-4.88-4.88c0-1.41,.6-2.68,1.55-3.57,.87-.82,2.05-1.32,3.33-1.32,2.7,0,4.88,2.19,4.88,4.88Z"/><circle class="cls-4" cx="35.81" cy="25.16" r="4.88"/></g></svg>